 The Batman vs Dracula The Animated Movie 2005 DVDRip Xvid fasamoo LKRG

RIPPER                           : fasamoo
Format                           : AVI
Format/Info                      : Audio Video Interleave
File size                        : 703 MiB
Duration                         : 1h 23mn
Overall bit rate                 : 1 181 Kbps
Writing application              : VirtualDubMod 1.5.4.1 (build 2178/release)
Writing library                  : VirtualDub build 32817/release
Language                         : English
Subtitles                        : None
Genre                            : Animation

Video
ID                               : 0
Format                           : MPEG-4 Visual
Format profile                   : Advanced Simple@L5
Format settings, BVOP            : Yes
Format settings, QPel            : No
Format settings, GMC             : No warppoints
Format settings, Matrix          : Custom
Codec ID                         : XVID
Codec ID/Hint                    : XviD
Duration                         : 1h 23mn
Bit rate                         : 1 042 Kbps
Width                            : 640 pixels
Height                           : 480 pixels
Display aspect ratio             : 4:3
Frame rate                       : 29.970 fps
Color space                      : YUV
Chroma subsampling               : 4:2:0
Bit depth                        : 8 bits
Scan type                        : Progressive
Bits/(Pixel*Frame)               : 0.113
Stream size                      : 620 MiB (88%)
Writing library                  : XviD 1.2.1 (UTC 2008-12-04)

Audio
ID                               : 1
Format                           : MPEG Audio
Format version                   : Version 1
Format profile                   : Layer 3
Mode                             : Joint stereo
Mode extension                   : MS Stereo
Codec ID                         : 55
Codec ID/Hint                    : MP3
Duration                         : 1h 23mn
Bit rate mode                    : Constant
Bit rate                         : 128 Kbps
Channel(s)                       : 2 channels
Sampling rate                    : 48.0 KHz
Video delay                      : 16ms
Stream size                      : 76.1 MiB (11%)
Alignment                        : Split accross interleaves
Interleave, duration             : 33 ms (1.00 video frame)
Interleave, preload duration     : 500 ms

                                 PLOT


Gotham City is terrorized not only by recent escapees Joker and Penguin, but by the original creature of the night, Dracula! Can Batman stop the ruthless vampire before he turns everyone in the city, including The Caped Crusader, Joker and Penguin, into his mindless minions?  

  







                                 IMBD
                     
                    http://www.imdb.com/title/tt0472219/
 
http://leetleech.org/images/85316104549430832874.png 
http://leetleech.org/images/18422930903826969085.png 
http://leetleech.org/images/21207653017726326328.png 
http://leetleech.org/images/68783657100218195065.png 
http://leetleech.org/images/19153364551829288368.png 
http://leetleech.org/images/28768156442708932679.png 
http://leetleech.org/images/94818908557775739611.png 
http://leetleech.org/images/42847562029595066081.png

